# xmcd CD database file
#
# Track frame offsets:
#	150
#	13580
#	30452
#	43928
#	62862
#	79738
#	94487
#	108788
#	128084
#	153213
#	168936
#	182799
#	197798
#	224943
#	246087
#
# Disc length: 3495 seconds
#
# Revision: 0
# Processed by: cddbd v1.5.2PL0 Copyright (c) Steve Scherf et al.
# Submitted via: CDex 1.51
#
DISCID=cf0da50f
DTITLE=Vari Artisti - L'Espresso Cafè - One Long Breath
DYEAR=2008
DGENRE=New Age
TTITLE0=Melody Gardot - Goodnite
TTITLE1=Catalano vs Sasso - RAW
TTITLE2=Malika Ayane - Soul Waver
TTITLE3=Tatma Project - K.Walkin'
TTITLE4=Bob Sinclair - World hold on (Acoustic Verion)
TTITLE5=Paris Combo - Je ne sais qui fumer
TTITLE6=Walter Ricci - For once in my life
TTITLE7=Stefano Bollani - Samba e amor
TTITLE8=Rosalia De Souza - Onde anda o meu amor
TTITLE9=Irene Grandi - Sono come tu mi vuoi
TTITLE10=Hucknall - Ain't that lovin' you
TTITLE11=Musetta - Red star
TTITLE12=Joker Juice - Paradise
TTITLE13=O.I.A. - Cha cha tango
TTITLE14=Mario Biondi - No mercy for me
EXTD=YEAR: 2008
EXTT0=
EXTT1=
EXTT2=
EXTT3=
EXTT4=
EXTT5=
EXTT6=
EXTT7=
EXTT8=
EXTT9=
EXTT10=
EXTT11=
EXTT12=
EXTT13=
EXTT14=
PLAYORDER=
